<?xml version="1.0" encoding="utf-8"?>
<!-- Generator: Adobe Illustrator 17.0.2, SVG Export Plug-In . SVG Version: 6.00 Build 0)  -->
<!DOCTYPE svg PUBLIC "-//W3C//DTD SVG 1.1//EN" "http://www.w3.org/Graphics/SVG/1.1/DTD/svg11.dtd">
<svg version="1.1" id="Layer_1" xmlns="http://www.w3.org/2000/svg" xmlns:xlink="http://www.w3.org/1999/xlink" x="0px" y="0px"
	 width="200px" height="200px" viewBox="0 0 200 200" enable-background="new 0 0 200 200" xml:space="preserve">
<g>
	<path d="M2.072,100c0-27.032,9.563-50.112,28.69-69.238S72.968,2.072,100,2.072s50.112,9.563,69.238,28.69
		s28.69,42.206,28.69,69.238s-9.563,50.112-28.69,69.238s-42.206,28.69-69.238,28.69s-50.112-9.563-69.238-28.69
		S2.072,127.032,2.072,100L2.072,100z M51.036,83.934c0,10.711,2.295,19.127,6.886,25.247L100,164.648l42.078-55.467
		c4.59-6.12,6.885-14.536,6.886-25.247c0-13.516-4.782-24.992-14.345-34.428S113.516,35.352,100,35.352S74.944,40.07,65.381,49.506
		S51.036,70.418,51.036,83.934L51.036,83.934z M79.343,84.125c0-5.738,2.04-10.583,6.12-14.536s8.926-5.929,14.536-5.929
		s10.456,1.976,14.536,5.929s6.12,8.798,6.12,14.536c0,5.738-2.04,10.583-6.12,14.536s-8.926,5.929-14.536,5.929
		s-10.456-1.976-14.536-5.929S79.343,89.863,79.343,84.125L79.343,84.125z"/>
</g>
</svg>
